<svg width="69" height="69" viewBox="0 0 69 69" fill="none" xmlns="http://www.w3.org/2000/svg">
<circle cx="34.0059" cy="34.5" r="34" fill="#4C4D52"/>
<path d="M48.1943 41.8734C47.2018 40.8734 44.798 39.4141 43.6317 38.826C42.1129 38.0611 41.9879 37.9986 40.7942 38.8854C39.9979 39.4772 39.4685 40.006 38.5366 39.8072C37.6047 39.6085 35.5796 38.4879 33.8065 36.7205C32.0333 34.9531 30.8477 32.8694 30.6483 31.9407C30.4489 31.012 30.9864 30.4889 31.5727 29.6908C32.3989 28.5658 32.3364 28.3783 31.6302 26.8597C31.0795 25.6785 29.5776 23.2973 28.5739 22.3099C27.5001 21.2493 27.5001 21.4368 26.8082 21.7243C26.2449 21.9612 25.7045 22.2493 25.1938 22.5848C24.1937 23.2492 23.6387 23.801 23.2506 24.6304C22.8625 25.4597 22.6881 27.404 24.6925 31.0451C26.6969 34.6862 28.1032 36.548 31.0139 39.4504C33.9246 42.3527 36.1628 43.9133 39.4347 45.7482C43.4823 48.015 45.0349 47.5731 45.8668 47.1857C46.6987 46.7982 47.2531 46.2482 47.9187 45.2482C48.2551 44.7384 48.5439 44.1986 48.7812 43.6358C49.0694 42.9465 49.2569 42.9465 48.1943 41.8734Z" stroke="#40DDB6" stroke-width="2" stroke-miterlimit="10"/>
</svg>
