<svg width="69" height="69" viewBox="0 0 69 69" fill="none" xmlns="http://www.w3.org/2000/svg">
<circle cx="34.0059" cy="34.5" r="34" fill="#4C4D52"/>
<path d="M34.0059 20.5C28.485 20.5 24.0059 24.9274 24.0059 30.3803C24.0059 36.6546 30.6725 46.5977 33.1204 50.032C33.2221 50.177 33.3552 50.2949 33.5091 50.3763C33.663 50.4576 33.8332 50.5 34.0059 50.5C34.1785 50.5 34.3487 50.4576 34.5026 50.3763C34.6565 50.2949 34.7897 50.177 34.8913 50.032C37.3392 46.5991 44.0059 36.6597 44.0059 30.3803C44.0059 24.9274 39.5267 20.5 34.0059 20.5Z" stroke="#40DDB6" stroke-width="2" stroke-linecap="round" stroke-linejoin="round"/>
<path d="M34.0059 35.5C36.215 35.5 38.0059 33.7091 38.0059 31.5C38.0059 29.2909 36.215 27.5 34.0059 27.5C31.7967 27.5 30.0059 29.2909 30.0059 31.5C30.0059 33.7091 31.7967 35.5 34.0059 35.5Z" stroke="#40DDB6" stroke-width="2" stroke-linecap="round" stroke-linejoin="round"/>
</svg>
